<svg width="146" height="32" viewBox="0 0 146 32" fill="none" xmlns="http://www.w3.org/2000/svg">
<g clip-path="url(#clip0_309_71)">
<g filter="url(#filter0_dddddd_309_71)">
<circle cx="16" cy="16" r="13.25" fill="black"/>
</g>
</g>
<path d="M21.8849 13.3622H19.2287C19.1529 12.9266 19.0133 12.5407 18.8097 12.2045C18.6061 11.8636 18.3527 11.5748 18.0497 11.3381C17.7467 11.1013 17.401 10.9238 17.0128 10.8054C16.6293 10.6823 16.215 10.6207 15.7699 10.6207C14.9792 10.6207 14.2784 10.8196 13.6676 11.2173C13.0568 11.6103 12.5786 12.188 12.233 12.9503C11.8873 13.7079 11.7145 14.6335 11.7145 15.7273C11.7145 16.84 11.8873 17.7775 12.233 18.5398C12.5833 19.2973 13.0616 19.8703 13.6676 20.2585C14.2784 20.642 14.9768 20.8338 15.7628 20.8338C16.1984 20.8338 16.6056 20.777 16.9844 20.6634C17.3679 20.545 17.7112 20.3722 18.0142 20.1449C18.322 19.9176 18.58 19.6383 18.7884 19.3068C19.0014 18.9754 19.1482 18.5966 19.2287 18.1705L21.8849 18.1847C21.7855 18.8759 21.5701 19.5246 21.2386 20.1307C20.9119 20.7367 20.4834 21.2718 19.9531 21.7358C19.4228 22.1951 18.8026 22.5549 18.0923 22.8153C17.3821 23.071 16.5938 23.1989 15.7273 23.1989C14.4489 23.1989 13.3078 22.9029 12.304 22.3111C11.3002 21.7192 10.5095 20.8646 9.93182 19.7472C9.35417 18.6297 9.06534 17.2898 9.06534 15.7273C9.06534 14.16 9.35653 12.8201 9.93892 11.7074C10.5213 10.59 11.3144 9.73532 12.3182 9.14347C13.322 8.55161 14.4583 8.25568 15.7273 8.25568C16.5369 8.25568 17.2898 8.36932 17.9858 8.59659C18.6818 8.82386 19.3021 9.15767 19.8466 9.59801C20.3911 10.0336 20.8385 10.5687 21.1889 11.2031C21.544 11.8329 21.776 12.5526 21.8849 13.3622Z" fill="white"/>
<path d="M47.3878 8.45455V23H45.044L38.1903 13.0923H38.0696V23H35.4347V8.45455H37.7926L44.6392 18.3693H44.767V8.45455H47.3878ZM54.9748 23.2131C53.881 23.2131 52.9364 22.9858 52.141 22.5312C51.3503 22.072 50.7418 21.4233 50.3157 20.5852C49.8896 19.7424 49.6765 18.7505 49.6765 17.6094C49.6765 16.4872 49.8896 15.5024 50.3157 14.6548C50.7466 13.8026 51.3479 13.1397 52.1197 12.6662C52.8915 12.188 53.7982 11.9489 54.8398 11.9489C55.5122 11.9489 56.1467 12.0578 56.7433 12.2756C57.3446 12.4886 57.8749 12.8201 58.3342 13.2699C58.7982 13.7197 59.1628 14.2926 59.4279 14.9886C59.6931 15.6799 59.8256 16.5038 59.8256 17.4602V18.2486H50.8839V16.5156H57.3612C57.3564 16.0232 57.2499 15.5852 57.0415 15.2017C56.8332 14.8134 56.542 14.508 56.168 14.2855C55.7987 14.063 55.3678 13.9517 54.8754 13.9517C54.3498 13.9517 53.8881 14.0795 53.4904 14.3352C53.0927 14.5862 52.7826 14.9176 52.56 15.3295C52.3422 15.7367 52.2309 16.1842 52.2262 16.6719V18.1847C52.2262 18.8191 52.3422 19.3636 52.5742 19.8182C52.8062 20.268 53.1306 20.6136 53.5472 20.8551C53.9639 21.0919 54.4516 21.2102 55.0103 21.2102C55.3844 21.2102 55.7229 21.1581 56.0259 21.054C56.329 20.9451 56.5917 20.7865 56.8143 20.5781C57.0368 20.3698 57.2049 20.1117 57.3185 19.804L59.7191 20.0739C59.5676 20.7083 59.2788 21.2623 58.8526 21.7358C58.4312 22.2045 57.8915 22.5691 57.2333 22.8295C56.5752 23.0852 55.8223 23.2131 54.9748 23.2131ZM64.1935 23L61.1112 12.0909H63.7319L65.6495 19.7614H65.7489L67.7092 12.0909H70.3015L72.2617 19.7188H72.3683L74.2575 12.0909H76.8853L73.7958 23H71.1183L69.0728 15.6278H68.9237L66.8782 23H64.1935ZM96.2053 13.3622H93.549C93.4732 12.9266 93.3336 12.5407 93.13 12.2045C92.9264 11.8636 92.6731 11.5748 92.37 11.3381C92.067 11.1013 91.7214 10.9238 91.3331 10.8054C90.9496 10.6823 90.5353 10.6207 90.0902 10.6207C89.2995 10.6207 88.5987 10.8196 87.9879 11.2173C87.3771 11.6103 86.8989 12.188 86.5533 12.9503C86.2076 13.7079 86.0348 14.6335 86.0348 15.7273C86.0348 16.84 86.2076 17.7775 86.5533 18.5398C86.9036 19.2973 87.3819 19.8703 87.9879 20.2585C88.5987 20.642 89.2971 20.8338 90.0831 20.8338C90.5187 20.8338 90.9259 20.777 91.3047 20.6634C91.6882 20.545 92.0315 20.3722 92.3345 20.1449C92.6423 19.9176 92.9003 19.6383 93.1087 19.3068C93.3217 18.9754 93.4685 18.5966 93.549 18.1705L96.2053 18.1847C96.1058 18.8759 95.8904 19.5246 95.5589 20.1307C95.2322 20.7367 94.8037 21.2718 94.2734 21.7358C93.7431 22.1951 93.1229 22.5549 92.4126 22.8153C91.7024 23.071 90.9141 23.1989 90.0476 23.1989C88.7692 23.1989 87.6281 22.9029 86.6243 22.3111C85.6205 21.7192 84.8298 20.8646 84.2521 19.7472C83.6745 18.6297 83.3857 17.2898 83.3857 15.7273C83.3857 14.16 83.6768 12.8201 84.2592 11.7074C84.8416 10.59 85.6347 9.73532 86.6385 9.14347C87.6423 8.55161 88.7786 8.25568 90.0476 8.25568C90.8572 8.25568 91.6101 8.36932 92.3061 8.59659C93.0021 8.82386 93.6224 9.15767 94.1669 9.59801C94.7114 10.0336 95.1589 10.5687 95.5092 11.2031C95.8643 11.8329 96.0964 12.5526 96.2053 13.3622ZM103.263 23.2131C102.198 23.2131 101.275 22.9787 100.493 22.5099C99.712 22.0412 99.1059 21.3854 98.6751 20.5426C98.2489 19.6998 98.0359 18.715 98.0359 17.5881C98.0359 16.4612 98.2489 15.474 98.6751 14.6264C99.1059 13.7789 99.712 13.1207 100.493 12.652C101.275 12.1832 102.198 11.9489 103.263 11.9489C104.328 11.9489 105.252 12.1832 106.033 12.652C106.814 13.1207 107.418 13.7789 107.844 14.6264C108.275 15.474 108.49 16.4612 108.49 17.5881C108.49 18.715 108.275 19.6998 107.844 20.5426C107.418 21.3854 106.814 22.0412 106.033 22.5099C105.252 22.9787 104.328 23.2131 103.263 23.2131ZM103.277 21.1534C103.855 21.1534 104.338 20.9948 104.726 20.6776C105.114 20.3556 105.403 19.9247 105.593 19.3849C105.787 18.8452 105.884 18.2438 105.884 17.581C105.884 16.9134 105.787 16.3097 105.593 15.7699C105.403 15.2254 105.114 14.7921 104.726 14.4702C104.338 14.1482 103.855 13.9872 103.277 13.9872C102.685 13.9872 102.193 14.1482 101.8 14.4702C101.412 14.7921 101.121 15.2254 100.926 15.7699C100.737 16.3097 100.642 16.9134 100.642 17.581C100.642 18.2438 100.737 18.8452 100.926 19.3849C101.121 19.9247 101.412 20.3556 101.8 20.6776C102.193 20.9948 102.685 21.1534 103.277 21.1534ZM114.721 23.1918C113.864 23.1918 113.097 22.9716 112.42 22.5312C111.743 22.0909 111.208 21.4517 110.815 20.6136C110.422 19.7756 110.225 18.7576 110.225 17.5597C110.225 16.3475 110.424 15.3248 110.822 14.4915C111.224 13.6534 111.766 13.0213 112.448 12.5952C113.13 12.1643 113.89 11.9489 114.728 11.9489C115.367 11.9489 115.893 12.0578 116.305 12.2756C116.717 12.4886 117.043 12.7467 117.285 13.0497C117.526 13.348 117.713 13.6297 117.846 13.8949H117.952V8.45455H120.531V23H118.002V21.2812H117.846C117.713 21.5464 117.522 21.8281 117.271 22.1264C117.02 22.42 116.688 22.6709 116.276 22.8793C115.864 23.0876 115.346 23.1918 114.721 23.1918ZM115.438 21.0824C115.983 21.0824 116.447 20.9356 116.83 20.642C117.214 20.3437 117.505 19.9295 117.704 19.3991C117.903 18.8688 118.002 18.2509 118.002 17.5455C118.002 16.84 117.903 16.2268 117.704 15.706C117.51 15.1851 117.221 14.7803 116.837 14.4915C116.459 14.2027 115.992 14.0582 115.438 14.0582C114.865 14.0582 114.387 14.2074 114.004 14.5057C113.62 14.804 113.331 15.2159 113.137 15.7415C112.943 16.267 112.846 16.8684 112.846 17.5455C112.846 18.2273 112.943 18.8357 113.137 19.3707C113.336 19.901 113.627 20.3201 114.011 20.6278C114.399 20.9309 114.875 21.0824 115.438 21.0824ZM128.1 23.2131C127.006 23.2131 126.061 22.9858 125.266 22.5312C124.475 22.072 123.867 21.4233 123.441 20.5852C123.015 19.7424 122.801 18.7505 122.801 17.6094C122.801 16.4872 123.015 15.5024 123.441 14.6548C123.872 13.8026 124.473 13.1397 125.245 12.6662C126.016 12.188 126.923 11.9489 127.965 11.9489C128.637 11.9489 129.272 12.0578 129.868 12.2756C130.47 12.4886 131 12.8201 131.459 13.2699C131.923 13.7197 132.288 14.2926 132.553 14.9886C132.818 15.6799 132.951 16.5038 132.951 17.4602V18.2486H124.009V16.5156H130.486C130.481 16.0232 130.375 15.5852 130.167 15.2017C129.958 14.8134 129.667 14.508 129.293 14.2855C128.924 14.063 128.493 13.9517 128 13.9517C127.475 13.9517 127.013 14.0795 126.615 14.3352C126.218 14.5862 125.908 14.9176 125.685 15.3295C125.467 15.7367 125.356 16.1842 125.351 16.6719V18.1847C125.351 18.8191 125.467 19.3636 125.699 19.8182C125.931 20.268 126.256 20.6136 126.672 20.8551C127.089 21.0919 127.577 21.2102 128.135 21.2102C128.509 21.2102 128.848 21.1581 129.151 21.054C129.454 20.9451 129.717 20.7865 129.939 20.5781C130.162 20.3698 130.33 20.1117 130.444 19.804L132.844 20.0739C132.693 20.7083 132.404 21.2623 131.978 21.7358C131.556 22.2045 131.016 22.5691 130.358 22.8295C129.7 23.0852 128.947 23.2131 128.1 23.2131ZM135.126 23V12.0909H137.619V13.9091H137.732C137.931 13.2794 138.272 12.794 138.755 12.4531C139.243 12.1075 139.799 11.9347 140.424 11.9347C140.566 11.9347 140.725 11.9418 140.9 11.956C141.08 11.9654 141.229 11.982 141.347 12.0057V14.3707C141.238 14.3329 141.066 14.2997 140.829 14.2713C140.597 14.2382 140.372 14.2216 140.154 14.2216C139.685 14.2216 139.264 14.3234 138.89 14.527C138.521 14.7259 138.229 15.0028 138.016 15.358C137.803 15.7131 137.697 16.1226 137.697 16.5866V23H135.126Z" fill="black"/>
<g clip-path="url(#clip1_309_71)">
<g filter="url(#filter1_dddddd_309_71)">
<circle cx="16" cy="16" r="13.25" fill="black"/>
</g>
</g>
<path d="M21.8849 13.3622H19.2287C19.1529 12.9266 19.0133 12.5407 18.8097 12.2045C18.6061 11.8636 18.3527 11.5748 18.0497 11.3381C17.7467 11.1013 17.401 10.9238 17.0128 10.8054C16.6293 10.6823 16.215 10.6207 15.7699 10.6207C14.9792 10.6207 14.2784 10.8196 13.6676 11.2173C13.0568 11.6103 12.5786 12.188 12.233 12.9503C11.8873 13.7079 11.7145 14.6335 11.7145 15.7273C11.7145 16.84 11.8873 17.7775 12.233 18.5398C12.5833 19.2973 13.0616 19.8703 13.6676 20.2585C14.2784 20.642 14.9768 20.8338 15.7628 20.8338C16.1984 20.8338 16.6056 20.777 16.9844 20.6634C17.3679 20.545 17.7112 20.3722 18.0142 20.1449C18.322 19.9176 18.58 19.6383 18.7884 19.3068C19.0014 18.9754 19.1482 18.5966 19.2287 18.1705L21.8849 18.1847C21.7855 18.8759 21.5701 19.5246 21.2386 20.1307C20.9119 20.7367 20.4834 21.2718 19.9531 21.7358C19.4228 22.1951 18.8026 22.5549 18.0923 22.8153C17.3821 23.071 16.5938 23.1989 15.7273 23.1989C14.4489 23.1989 13.3078 22.9029 12.304 22.3111C11.3002 21.7192 10.5095 20.8646 9.93182 19.7472C9.35417 18.6297 9.06534 17.2898 9.06534 15.7273C9.06534 14.16 9.35653 12.8201 9.93892 11.7074C10.5213 10.59 11.3144 9.73532 12.3182 9.14347C13.322 8.55161 14.4583 8.25568 15.7273 8.25568C16.5369 8.25568 17.2898 8.36932 17.9858 8.59659C18.6818 8.82386 19.3021 9.15767 19.8466 9.59801C20.3911 10.0336 20.8385 10.5687 21.1889 11.2031C21.544 11.8329 21.776 12.5526 21.8849 13.3622Z" fill="white"/>
<path d="M47.3878 8.45455V23H45.044L38.1903 13.0923H38.0696V23H35.4347V8.45455H37.7926L44.6392 18.3693H44.767V8.45455H47.3878ZM54.9748 23.2131C53.881 23.2131 52.9364 22.9858 52.141 22.5312C51.3503 22.072 50.7418 21.4233 50.3157 20.5852C49.8896 19.7424 49.6765 18.7505 49.6765 17.6094C49.6765 16.4872 49.8896 15.5024 50.3157 14.6548C50.7466 13.8026 51.3479 13.1397 52.1197 12.6662C52.8915 12.188 53.7982 11.9489 54.8398 11.9489C55.5122 11.9489 56.1467 12.0578 56.7433 12.2756C57.3446 12.4886 57.8749 12.8201 58.3342 13.2699C58.7982 13.7197 59.1628 14.2926 59.4279 14.9886C59.6931 15.6799 59.8256 16.5038 59.8256 17.4602V18.2486H50.8839V16.5156H57.3612C57.3564 16.0232 57.2499 15.5852 57.0415 15.2017C56.8332 14.8134 56.542 14.508 56.168 14.2855C55.7987 14.063 55.3678 13.9517 54.8754 13.9517C54.3498 13.9517 53.8881 14.0795 53.4904 14.3352C53.0927 14.5862 52.7826 14.9176 52.56 15.3295C52.3422 15.7367 52.2309 16.1842 52.2262 16.6719V18.1847C52.2262 18.8191 52.3422 19.3636 52.5742 19.8182C52.8062 20.268 53.1306 20.6136 53.5472 20.8551C53.9639 21.0919 54.4516 21.2102 55.0103 21.2102C55.3844 21.2102 55.7229 21.1581 56.0259 21.054C56.329 20.9451 56.5917 20.7865 56.8143 20.5781C57.0368 20.3698 57.2049 20.1117 57.3185 19.804L59.7191 20.0739C59.5676 20.7083 59.2788 21.2623 58.8526 21.7358C58.4312 22.2045 57.8915 22.5691 57.2333 22.8295C56.5752 23.0852 55.8223 23.2131 54.9748 23.2131ZM64.1935 23L61.1112 12.0909H63.7319L65.6495 19.7614H65.7489L67.7092 12.0909H70.3015L72.2617 19.7188H72.3683L74.2575 12.0909H76.8853L73.7958 23H71.1183L69.0728 15.6278H68.9237L66.8782 23H64.1935ZM96.2053 13.3622H93.549C93.4732 12.9266 93.3336 12.5407 93.13 12.2045C92.9264 11.8636 92.6731 11.5748 92.37 11.3381C92.067 11.1013 91.7214 10.9238 91.3331 10.8054C90.9496 10.6823 90.5353 10.6207 90.0902 10.6207C89.2995 10.6207 88.5987 10.8196 87.9879 11.2173C87.3771 11.6103 86.8989 12.188 86.5533 12.9503C86.2076 13.7079 86.0348 14.6335 86.0348 15.7273C86.0348 16.84 86.2076 17.7775 86.5533 18.5398C86.9036 19.2973 87.3819 19.8703 87.9879 20.2585C88.5987 20.642 89.2971 20.8338 90.0831 20.8338C90.5187 20.8338 90.9259 20.777 91.3047 20.6634C91.6882 20.545 92.0315 20.3722 92.3345 20.1449C92.6423 19.9176 92.9003 19.6383 93.1087 19.3068C93.3217 18.9754 93.4685 18.5966 93.549 18.1705L96.2053 18.1847C96.1058 18.8759 95.8904 19.5246 95.5589 20.1307C95.2322 20.7367 94.8037 21.2718 94.2734 21.7358C93.7431 22.1951 93.1229 22.5549 92.4126 22.8153C91.7024 23.071 90.9141 23.1989 90.0476 23.1989C88.7692 23.1989 87.6281 22.9029 86.6243 22.3111C85.6205 21.7192 84.8298 20.8646 84.2521 19.7472C83.6745 18.6297 83.3857 17.2898 83.3857 15.7273C83.3857 14.16 83.6768 12.8201 84.2592 11.7074C84.8416 10.59 85.6347 9.73532 86.6385 9.14347C87.6423 8.55161 88.7786 8.25568 90.0476 8.25568C90.8572 8.25568 91.6101 8.36932 92.3061 8.59659C93.0021 8.82386 93.6224 9.15767 94.1669 9.59801C94.7114 10.0336 95.1589 10.5687 95.5092 11.2031C95.8643 11.8329 96.0964 12.5526 96.2053 13.3622ZM103.263 23.2131C102.198 23.2131 101.275 22.9787 100.493 22.5099C99.712 22.0412 99.1059 21.3854 98.6751 20.5426C98.2489 19.6998 98.0359 18.715 98.0359 17.5881C98.0359 16.4612 98.2489 15.474 98.6751 14.6264C99.1059 13.7789 99.712 13.1207 100.493 12.652C101.275 12.1832 102.198 11.9489 103.263 11.9489C104.328 11.9489 105.252 12.1832 106.033 12.652C106.814 13.1207 107.418 13.7789 107.844 14.6264C108.275 15.474 108.49 16.4612 108.49 17.5881C108.49 18.715 108.275 19.6998 107.844 20.5426C107.418 21.3854 106.814 22.0412 106.033 22.5099C105.252 22.9787 104.328 23.2131 103.263 23.2131ZM103.277 21.1534C103.855 21.1534 104.338 20.9948 104.726 20.6776C105.114 20.3556 105.403 19.9247 105.593 19.3849C105.787 18.8452 105.884 18.2438 105.884 17.581C105.884 16.9134 105.787 16.3097 105.593 15.7699C105.403 15.2254 105.114 14.7921 104.726 14.4702C104.338 14.1482 103.855 13.9872 103.277 13.9872C102.685 13.9872 102.193 14.1482 101.8 14.4702C101.412 14.7921 101.121 15.2254 100.926 15.7699C100.737 16.3097 100.642 16.9134 100.642 17.581C100.642 18.2438 100.737 18.8452 100.926 19.3849C101.121 19.9247 101.412 20.3556 101.8 20.6776C102.193 20.9948 102.685 21.1534 103.277 21.1534ZM114.721 23.1918C113.864 23.1918 113.097 22.9716 112.42 22.5312C111.743 22.0909 111.208 21.4517 110.815 20.6136C110.422 19.7756 110.225 18.7576 110.225 17.5597C110.225 16.3475 110.424 15.3248 110.822 14.4915C111.224 13.6534 111.766 13.0213 112.448 12.5952C113.13 12.1643 113.89 11.9489 114.728 11.9489C115.367 11.9489 115.893 12.0578 116.305 12.2756C116.717 12.4886 117.043 12.7467 117.285 13.0497C117.526 13.348 117.713 13.6297 117.846 13.8949H117.952V8.45455H120.531V23H118.002V21.2812H117.846C117.713 21.5464 117.522 21.8281 117.271 22.1264C117.02 22.42 116.688 22.6709 116.276 22.8793C115.864 23.0876 115.346 23.1918 114.721 23.1918ZM115.438 21.0824C115.983 21.0824 116.447 20.9356 116.83 20.642C117.214 20.3437 117.505 19.9295 117.704 19.3991C117.903 18.8688 118.002 18.2509 118.002 17.5455C118.002 16.84 117.903 16.2268 117.704 15.706C117.51 15.1851 117.221 14.7803 116.837 14.4915C116.459 14.2027 115.992 14.0582 115.438 14.0582C114.865 14.0582 114.387 14.2074 114.004 14.5057C113.62 14.804 113.331 15.2159 113.137 15.7415C112.943 16.267 112.846 16.8684 112.846 17.5455C112.846 18.2273 112.943 18.8357 113.137 19.3707C113.336 19.901 113.627 20.3201 114.011 20.6278C114.399 20.9309 114.875 21.0824 115.438 21.0824ZM128.1 23.2131C127.006 23.2131 126.061 22.9858 125.266 22.5312C124.475 22.072 123.867 21.4233 123.441 20.5852C123.015 19.7424 122.801 18.7505 122.801 17.6094C122.801 16.4872 123.015 15.5024 123.441 14.6548C123.872 13.8026 124.473 13.1397 125.245 12.6662C126.016 12.188 126.923 11.9489 127.965 11.9489C128.637 11.9489 129.272 12.0578 129.868 12.2756C130.47 12.4886 131 12.8201 131.459 13.2699C131.923 13.7197 132.288 14.2926 132.553 14.9886C132.818 15.6799 132.951 16.5038 132.951 17.4602V18.2486H124.009V16.5156H130.486C130.481 16.0232 130.375 15.5852 130.167 15.2017C129.958 14.8134 129.667 14.508 129.293 14.2855C128.924 14.063 128.493 13.9517 128 13.9517C127.475 13.9517 127.013 14.0795 126.615 14.3352C126.218 14.5862 125.908 14.9176 125.685 15.3295C125.467 15.7367 125.356 16.1842 125.351 16.6719V18.1847C125.351 18.8191 125.467 19.3636 125.699 19.8182C125.931 20.268 126.256 20.6136 126.672 20.8551C127.089 21.0919 127.577 21.2102 128.135 21.2102C128.509 21.2102 128.848 21.1581 129.151 21.054C129.454 20.9451 129.717 20.7865 129.939 20.5781C130.162 20.3698 130.33 20.1117 130.444 19.804L132.844 20.0739C132.693 20.7083 132.404 21.2623 131.978 21.7358C131.556 22.2045 131.016 22.5691 130.358 22.8295C129.7 23.0852 128.947 23.2131 128.1 23.2131ZM135.126 23V12.0909H137.619V13.9091H137.732C137.931 13.2794 138.272 12.794 138.755 12.4531C139.243 12.1075 139.799 11.9347 140.424 11.9347C140.566 11.9347 140.725 11.9418 140.9 11.956C141.08 11.9654 141.229 11.982 141.347 12.0057V14.3707C141.238 14.3329 141.066 14.2997 140.829 14.2713C140.597 14.2382 140.372 14.2216 140.154 14.2216C139.685 14.2216 139.264 14.3234 138.89 14.527C138.521 14.7259 138.229 15.0028 138.016 15.358C137.803 15.7131 137.697 16.1226 137.697 16.5866V23H135.126Z" fill="black"/>
<defs>
<filter id="filter0_dddddd_309_71" x="-2.25" y="-2.5" width="36.5" height="36.5" filterUnits="userSpaceOnUse" color-interpolation-filters="sRGB">
<feFlood flood-opacity="0" result="BackgroundImageFix"/>
<feColorMatrix in="SourceAlpha" type="matrix" values="0 0 0 0 0 0 0 0 0 0 0 0 0 0 0 0 0 0 127 0" result="hardAlpha"/>
<feOffset dy="-0.00691814"/>
<feGaussianBlur stdDeviation="0.0691814"/>
<feColorMatrix type="matrix" values="0 0 0 0 0 0 0 0 0 0 0 0 0 0 0 0 0 0 0.07 0"/>
<feBlend mode="normal" in2="BackgroundImageFix" result="effect1_dropShadow_309_71"/>
<feColorMatrix in="SourceAlpha" type="matrix" values="0 0 0 0 0 0 0 0 0 0 0 0 0 0 0 0 0 0 127 0" result="hardAlpha"/>
<feOffset dy="-0.0166253"/>
<feGaussianBlur stdDeviation="0.166253"/>
<feColorMatrix type="matrix" values="0 0 0 0 0 0 0 0 0 0 0 0 0 0 0 0 0 0 0.0503198 0"/>
<feBlend mode="normal" in2="effect1_dropShadow_309_71" result="effect2_dropShadow_309_71"/>
<feColorMatrix in="SourceAlpha" type="matrix" values="0 0 0 0 0 0 0 0 0 0 0 0 0 0 0 0 0 0 127 0" result="hardAlpha"/>
<feOffset dy="-0.0313039"/>
<feGaussianBlur stdDeviation="0.313039"/>
<feColorMatrix type="matrix" values="0 0 0 0 0 0 0 0 0 0 0 0 0 0 0 0 0 0 0.0417275 0"/>
<feBlend mode="normal" in2="effect2_dropShadow_309_71" result="effect3_dropShadow_309_71"/>
<feColorMatrix in="SourceAlpha" type="matrix" values="0 0 0 0 0 0 0 0 0 0 0 0 0 0 0 0 0 0 127 0" result="hardAlpha"/>
<feOffset dy="-0.0558408"/>
<feGaussianBlur stdDeviation="0.558408"/>
<feColorMatrix type="matrix" values="0 0 0 0 0 0 0 0 0 0 0 0 0 0 0 0 0 0 0.035 0"/>
<feBlend mode="normal" in2="effect3_dropShadow_309_71" result="effect4_dropShadow_309_71"/>
<feColorMatrix in="SourceAlpha" type="matrix" values="0 0 0 0 0 0 0 0 0 0 0 0 0 0 0 0 0 0 127 0" result="hardAlpha"/>
<feOffset dy="-0.104444"/>
<feGaussianBlur stdDeviation="1.04444"/>
<feColorMatrix type="matrix" values="0 0 0 0 0 0 0 0 0 0 0 0 0 0 0 0 0 0 0.0282725 0"/>
<feBlend mode="normal" in2="effect4_dropShadow_309_71" result="effect5_dropShadow_309_71"/>
<feColorMatrix in="SourceAlpha" type="matrix" values="0 0 0 0 0 0 0 0 0 0 0 0 0 0 0 0 0 0 127 0" result="hardAlpha"/>
<feOffset dy="-0.25"/>
<feGaussianBlur stdDeviation="2.5"/>
<feColorMatrix type="matrix" values="0 0 0 0 0 0 0 0 0 0 0 0 0 0 0 0 0 0 0.0196802 0"/>
<feBlend mode="normal" in2="effect5_dropShadow_309_71" result="effect6_dropShadow_309_71"/>
<feBlend mode="normal" in="SourceGraphic" in2="effect6_dropShadow_309_71" result="shape"/>
</filter>
<filter id="filter1_dddddd_309_71" x="-2.25" y="-2.5" width="36.5" height="36.5" filterUnits="userSpaceOnUse" color-interpolation-filters="sRGB">
<feFlood flood-opacity="0" result="BackgroundImageFix"/>
<feColorMatrix in="SourceAlpha" type="matrix" values="0 0 0 0 0 0 0 0 0 0 0 0 0 0 0 0 0 0 127 0" result="hardAlpha"/>
<feOffset dy="-0.00691814"/>
<feGaussianBlur stdDeviation="0.0691814"/>
<feColorMatrix type="matrix" values="0 0 0 0 0 0 0 0 0 0 0 0 0 0 0 0 0 0 0.07 0"/>
<feBlend mode="normal" in2="BackgroundImageFix" result="effect1_dropShadow_309_71"/>
<feColorMatrix in="SourceAlpha" type="matrix" values="0 0 0 0 0 0 0 0 0 0 0 0 0 0 0 0 0 0 127 0" result="hardAlpha"/>
<feOffset dy="-0.0166253"/>
<feGaussianBlur stdDeviation="0.166253"/>
<feColorMatrix type="matrix" values="0 0 0 0 0 0 0 0 0 0 0 0 0 0 0 0 0 0 0.0503198 0"/>
<feBlend mode="normal" in2="effect1_dropShadow_309_71" result="effect2_dropShadow_309_71"/>
<feColorMatrix in="SourceAlpha" type="matrix" values="0 0 0 0 0 0 0 0 0 0 0 0 0 0 0 0 0 0 127 0" result="hardAlpha"/>
<feOffset dy="-0.0313039"/>
<feGaussianBlur stdDeviation="0.313039"/>
<feColorMatrix type="matrix" values="0 0 0 0 0 0 0 0 0 0 0 0 0 0 0 0 0 0 0.0417275 0"/>
<feBlend mode="normal" in2="effect2_dropShadow_309_71" result="effect3_dropShadow_309_71"/>
<feColorMatrix in="SourceAlpha" type="matrix" values="0 0 0 0 0 0 0 0 0 0 0 0 0 0 0 0 0 0 127 0" result="hardAlpha"/>
<feOffset dy="-0.0558408"/>
<feGaussianBlur stdDeviation="0.558408"/>
<feColorMatrix type="matrix" values="0 0 0 0 0 0 0 0 0 0 0 0 0 0 0 0 0 0 0.035 0"/>
<feBlend mode="normal" in2="effect3_dropShadow_309_71" result="effect4_dropShadow_309_71"/>
<feColorMatrix in="SourceAlpha" type="matrix" values="0 0 0 0 0 0 0 0 0 0 0 0 0 0 0 0 0 0 127 0" result="hardAlpha"/>
<feOffset dy="-0.104444"/>
<feGaussianBlur stdDeviation="1.04444"/>
<feColorMatrix type="matrix" values="0 0 0 0 0 0 0 0 0 0 0 0 0 0 0 0 0 0 0.0282725 0"/>
<feBlend mode="normal" in2="effect4_dropShadow_309_71" result="effect5_dropShadow_309_71"/>
<feColorMatrix in="SourceAlpha" type="matrix" values="0 0 0 0 0 0 0 0 0 0 0 0 0 0 0 0 0 0 127 0" result="hardAlpha"/>
<feOffset dy="-0.25"/>
<feGaussianBlur stdDeviation="2.5"/>
<feColorMatrix type="matrix" values="0 0 0 0 0 0 0 0 0 0 0 0 0 0 0 0 0 0 0.0196802 0"/>
<feBlend mode="normal" in2="effect5_dropShadow_309_71" result="effect6_dropShadow_309_71"/>
<feBlend mode="normal" in="SourceGraphic" in2="effect6_dropShadow_309_71" result="shape"/>
</filter>
<clipPath id="clip0_309_71">
<rect width="32" height="32" fill="white"/>
</clipPath>
<clipPath id="clip1_309_71">
<rect width="32" height="32" fill="white"/>
</clipPath>
</defs>
</svg>
